<svg xmlns="http://www.w3.org/2000/svg" xmlns:xlink="http://www.w3.org/1999/xlink" width="89.47411" height="34.448437" viewBox="0 0 89.47411 34.448437">
<defs>
<g>
<g id="glyph-0-0">
<path d="M 5.984375 -7.640625 L 5.40625 -7.640625 C 5.425781 -7.722656 5.4375 -7.800781 5.4375 -7.875 C 5.4375 -8.0625 5.390625 -8.207031 5.296875 -8.3125 C 5.160156 -8.46875 4.9375 -8.546875 4.625 -8.546875 C 4.226562 -8.546875 3.925781 -8.429688 3.71875 -8.203125 C 3.507812 -7.984375 3.347656 -7.59375 3.234375 -7.03125 L 3.078125 -6.234375 L 4.828125 -6.234375 L 4.703125 -5.609375 L 2.953125 -5.609375 L 1.796875 0.390625 C 1.660156 1.085938 1.378906 1.613281 0.953125 1.96875 C 0.523438 2.320312 -0.0390625 2.5 -0.75 2.5 L -0.671875 1.921875 C -0.265625 1.921875 0.0351562 1.8125 0.234375 1.59375 C 0.441406 1.363281 0.601562 0.960938 0.71875 0.390625 L 1.875 -5.609375 L 0.84375 -5.609375 L 0.96875 -6.234375 L 2 -6.234375 L 2.15625 -7.015625 C 2.289062 -7.710938 2.570312 -8.234375 3 -8.578125 C 3.4375 -8.941406 4.003906 -9.125 4.703125 -9.125 C 4.960938 -9.125 5.21875 -9.097656 5.46875 -9.046875 C 5.71875 -9.003906 5.96875 -8.929688 6.21875 -8.828125 Z M 5.984375 -7.640625 "/>
</g>
<g id="glyph-0-1">
<path d="M -0.109375 0 L 0 -0.625 L 0.984375 -0.625 L 1.953125 -5.609375 L 0.921875 -5.609375 L 1.03125 -6.234375 L 8.0625 -6.234375 L 7.9375 -5.609375 L 6.921875 -5.609375 L 5.953125 -0.625 L 6.90625 -0.625 L 6.796875 0 L 3.8125 0 L 3.9375 -0.625 L 4.859375 -0.625 L 5.84375 -5.609375 L 3.03125 -5.609375 L 2.0625 -0.625 L 3 -0.625 L 2.875 0 Z M -0.109375 0 "/>
</g>
<g id="glyph-0-2">
<path d="M -0.1875 0 L -0.078125 -0.625 L 1.046875 -0.625 L 2.5 -8.125 L 1.390625 -8.125 L 1.515625 -8.75 L 4.921875 -8.75 L 4.8125 -8.125 L 3.6875 -8.125 L 2.25 -0.71875 L 6.25 -0.71875 L 6.53125 -2.1875 L 7.25 -2.1875 L 6.828125 0 Z M -0.1875 0 "/>
</g>
<g id="glyph-0-3">
<path d="M 8.0625 -2.3125 C 7.644531 -1.5 7.09375 -0.878906 6.40625 -0.453125 C 5.71875 -0.0351562 4.90625 0.171875 3.96875 0.171875 C 3.40625 0.171875 2.894531 0.0703125 2.4375 -0.125 C 1.988281 -0.320312 1.613281 -0.609375 1.3125 -0.984375 C 0.957031 -1.421875 0.726562 -1.914062 0.625 -2.46875 C 0.519531 -3.03125 0.535156 -3.660156 0.671875 -4.359375 C 0.941406 -5.722656 1.550781 -6.820312 2.5 -7.65625 C 3.445312 -8.488281 4.5625 -8.90625 5.84375 -8.90625 C 6.320312 -8.90625 6.816406 -8.84375 7.328125 -8.71875 C 7.835938 -8.59375 8.378906 -8.40625 8.953125 -8.15625 L 8.5625 -6.140625 L 7.90625 -6.140625 C 7.90625 -6.867188 7.71875 -7.40625 7.34375 -7.75 C 6.976562 -8.101562 6.40625 -8.28125 5.625 -8.28125 C 4.6875 -8.28125 3.910156 -7.945312 3.296875 -7.28125 C 2.691406 -6.625 2.265625 -5.648438 2.015625 -4.359375 C 1.765625 -3.078125 1.816406 -2.101562 2.171875 -1.4375 C 2.523438 -0.78125 3.164062 -0.453125 4.09375 -0.453125 C 4.75 -0.453125 5.316406 -0.609375 5.796875 -0.921875 C 6.273438 -1.234375 6.671875 -1.695312 6.984375 -2.3125 Z M 8.0625 -2.3125 "/>
</g>
<g id="glyph-1-0">
<path d="M 4.484375 -4.421875 L 4.28125 -3.328125 L 3.828125 -3.328125 C 3.835938 -3.378906 3.84375 -3.425781 3.84375 -3.46875 C 3.84375 -3.613281 3.8125 -3.726562 3.75 -3.8125 C 3.664062 -3.914062 3.519531 -3.96875 3.3125 -3.96875 C 2.925781 -3.96875 2.609375 -3.835938 2.359375 -3.578125 C 2.109375 -3.316406 1.9375 -2.945312 1.84375 -2.46875 L 1.359375 0 L 0.59375 0 L 1.375 -3.984375 L 0.640625 -3.984375 L 0.71875 -4.421875 L 2.21875 -4.421875 L 2.078125 -3.640625 C 2.273438 -3.941406 2.503906 -4.164062 2.765625 -4.3125 C 3.035156 -4.46875 3.34375 -4.546875 3.6875 -4.546875 C 3.8125 -4.546875 3.9375 -4.535156 4.0625 -4.515625 C 4.195312 -4.492188 4.335938 -4.460938 4.484375 -4.421875 Z M 4.484375 -4.421875 "/>
</g>
<g id="glyph-1-1">
<path d="M 1.25 -1.703125 C 1.238281 -1.585938 1.234375 -1.484375 1.234375 -1.390625 C 1.234375 -1.128906 1.28125 -0.914062 1.375 -0.75 C 1.539062 -0.445312 1.84375 -0.296875 2.28125 -0.296875 C 2.59375 -0.296875 2.832031 -0.34375 3 -0.4375 C 3.28125 -0.613281 3.453125 -0.8125 3.515625 -1.03125 L 4.078125 -1.03125 C 3.960938 -0.675781 3.703125 -0.378906 3.296875 -0.140625 C 3.003906 0.0351562 2.570312 0.125 2 0.125 C 1.425781 0.125 0.988281 -0.0859375 0.6875 -0.515625 C 0.46875 -0.804688 0.359375 -1.171875 0.359375 -1.609375 C 0.359375 -1.796875 0.378906 -1.992188 0.421875 -2.203125 C 0.554688 -2.910156 0.859375 -3.476562 1.328125 -3.90625 C 1.796875 -4.332031 2.363281 -4.546875 3.03125 -4.546875 C 4.113281 -4.546875 4.65625 -4.160156 4.65625 -3.390625 C 4.65625 -2.828125 4.367188 -2.410156 3.796875 -2.140625 C 3.222656 -1.859375 2.375 -1.710938 1.25 -1.703125 Z M 3.375 -2.625 C 3.6875 -2.8125 3.84375 -3.078125 3.84375 -3.421875 C 3.84375 -3.890625 3.53125 -4.125 2.90625 -4.125 C 2.53125 -4.125 2.210938 -3.984375 1.953125 -3.703125 C 1.703125 -3.421875 1.492188 -2.898438 1.328125 -2.140625 C 2.222656 -2.179688 2.90625 -2.34375 3.375 -2.625 Z M 3.375 -2.625 "/>
</g>
<g id="glyph-1-2">
<path d="M 0.296875 -1.28125 L 0.734375 -1.28125 C 0.722656 -1.195312 0.71875 -1.117188 0.71875 -1.046875 C 0.71875 -0.546875 1.0625 -0.296875 1.75 -0.296875 C 2.4375 -0.296875 2.828125 -0.546875 2.921875 -1.046875 C 2.929688 -1.097656 2.9375 -1.164062 2.9375 -1.25 C 2.9375 -1.34375 2.890625 -1.441406 2.796875 -1.546875 C 2.703125 -1.648438 2.457031 -1.769531 2.0625 -1.90625 L 1.546875 -2.09375 C 1.191406 -2.207031 0.957031 -2.34375 0.84375 -2.5 C 0.726562 -2.65625 0.671875 -2.828125 0.671875 -3.015625 C 0.671875 -3.085938 0.675781 -3.164062 0.6875 -3.25 C 0.769531 -3.644531 0.976562 -3.957031 1.3125 -4.1875 C 1.65625 -4.425781 2.070312 -4.546875 2.5625 -4.546875 C 3.0625 -4.546875 3.566406 -4.425781 4.078125 -4.1875 L 3.890625 -3.21875 L 3.453125 -3.21875 C 3.460938 -3.28125 3.46875 -3.335938 3.46875 -3.390625 C 3.46875 -3.597656 3.394531 -3.769531 3.25 -3.90625 C 3.113281 -4.050781 2.882812 -4.125 2.5625 -4.125 C 1.90625 -4.125 1.535156 -3.898438 1.453125 -3.453125 C 1.441406 -3.398438 1.4375 -3.332031 1.4375 -3.25 C 1.4375 -3.164062 1.476562 -3.070312 1.5625 -2.96875 C 1.65625 -2.875 1.878906 -2.769531 2.234375 -2.65625 L 2.796875 -2.46875 C 3.191406 -2.34375 3.460938 -2.179688 3.609375 -1.984375 C 3.710938 -1.835938 3.765625 -1.695312 3.765625 -1.5625 C 3.765625 -0.976562 3.53125 -0.535156 3.0625 -0.234375 C 2.695312 0.00390625 2.234375 0.125 1.671875 0.125 C 1.117188 0.125 0.59375 0 0.09375 -0.25 Z M 0.296875 -1.28125 "/>
</g>
<g id="glyph-2-0">
<path d="M 1.265625 -5.421875 L 8.78125 -5.421875 L 8.78125 -4.484375 L 1.265625 -4.484375 Z M 1.265625 -3.03125 L 8.78125 -3.03125 L 8.78125 -2.09375 L 1.265625 -2.09375 Z M 1.265625 -3.03125 "/>
</g>
<g id="glyph-2-1">
<path d="M 1.703125 0 L 1.703125 -0.625 L 3.234375 -0.625 L 3.234375 -7.90625 L 1.46875 -6.75 L 1.46875 -7.53125 L 3.59375 -8.90625 L 4.40625 -8.90625 L 4.40625 -0.625 L 5.9375 -0.625 L 5.9375 0 Z M 1.703125 0 "/>
</g>
<g id="glyph-2-2">
<path d="M 1.53125 -6.65625 L 0.875 -6.65625 L 0.875 -8.21875 C 1.289062 -8.445312 1.710938 -8.617188 2.140625 -8.734375 C 2.566406 -8.847656 2.984375 -8.90625 3.390625 -8.90625 C 4.296875 -8.90625 5.007812 -8.679688 5.53125 -8.234375 C 6.0625 -7.796875 6.328125 -7.203125 6.328125 -6.453125 C 6.328125 -5.585938 5.734375 -4.5625 4.546875 -3.375 C 4.453125 -3.28125 4.378906 -3.210938 4.328125 -3.171875 L 2.125 -0.96875 L 5.765625 -0.96875 L 5.765625 -2.046875 L 6.453125 -2.046875 L 6.453125 0 L 0.8125 0 L 0.8125 -0.640625 L 3.46875 -3.28125 C 4.050781 -3.875 4.46875 -4.414062 4.71875 -4.90625 C 4.96875 -5.394531 5.09375 -5.910156 5.09375 -6.453125 C 5.09375 -7.035156 4.9375 -7.492188 4.625 -7.828125 C 4.320312 -8.160156 3.90625 -8.328125 3.375 -8.328125 C 2.8125 -8.328125 2.378906 -8.1875 2.078125 -7.90625 C 1.773438 -7.632812 1.59375 -7.21875 1.53125 -6.65625 Z M 1.53125 -6.65625 "/>
</g>
<g id="glyph-3-0">
<path d="M 5.09375 15.96875 L 2.359375 8.78125 L 1.53125 9.5 L 1.3125 9.328125 L 3.03125 7.8125 L 5.59375 14.5625 L 11.78125 -0.25 C 11.8125 -0.320312 11.882812 -0.359375 12 -0.359375 C 12.0625 -0.359375 12.113281 -0.335938 12.15625 -0.296875 C 12.207031 -0.265625 12.234375 -0.226562 12.234375 -0.1875 L 12.234375 -0.140625 L 5.5625 15.875 C 5.507812 15.9375 5.4375 15.96875 5.34375 15.96875 Z M 5.09375 15.96875 "/>
</g>
</g>
</defs>
<g fill="rgb(0%, 0%, 0%)" fill-opacity="1">
<use xlink:href="#glyph-0-0" x="1.40625" y="18.599609"/>
</g>
<g fill="rgb(0%, 0%, 0%)" fill-opacity="1">
<use xlink:href="#glyph-1-0" x="8.164062" y="21.267578"/>
</g>
<g fill="rgb(0%, 0%, 0%)" fill-opacity="1">
<use xlink:href="#glyph-1-1" x="13.238281" y="21.267578"/>
</g>
<g fill="rgb(0%, 0%, 0%)" fill-opacity="1">
<use xlink:href="#glyph-1-2" x="18.75" y="21.267578"/>
</g>
<g fill="rgb(0%, 0%, 0%)" fill-opacity="1">
<use xlink:href="#glyph-2-0" x="26.03125" y="18.603516"/>
</g>
<path fill="none" stroke-width="1.2" stroke-linecap="butt" stroke-linejoin="miter" stroke="rgb(0%, 0%, 0%)" stroke-opacity="1" stroke-miterlimit="10" d="M 40.148438 -3.760805 L 88.140625 -3.760805 " transform="matrix(1, 0, 0, 1, 0, 18.600648)"/>
<g fill="rgb(0%, 0%, 0%)" fill-opacity="1">
<use xlink:href="#glyph-2-1" x="60.449219" y="8.904297"/>
</g>
<g fill="rgb(0%, 0%, 0%)" fill-opacity="1">
<use xlink:href="#glyph-2-2" x="40" y="30.943359"/>
</g>
<g fill="rgb(0%, 0%, 0%)" fill-opacity="1">
<use xlink:href="#glyph-0-1" x="47.898438" y="30.943359"/>
</g>
<g fill="rgb(0%, 0%, 0%)" fill-opacity="1">
<use xlink:href="#glyph-3-0" x="55.304688" y="18.470714"/>
</g>
<path fill="none" stroke-width="0.6" stroke-linecap="round" stroke-linejoin="miter" stroke="rgb(0%, 0%, 0%)" stroke-opacity="1" stroke-miterlimit="10" d="M 67.25 -0.194398 L 87.839844 -0.194398 " transform="matrix(1, 0, 0, 1, 0, 18.600648)"/>
<g fill="rgb(0%, 0%, 0%)" fill-opacity="1">
<use xlink:href="#glyph-0-2" x="68.398438" y="30.943359"/>
</g>
<g fill="rgb(0%, 0%, 0%)" fill-opacity="1">
<use xlink:href="#glyph-0-3" x="78.519531" y="30.943359"/>
</g>
</svg>
